<svg width="512" height="512" viewBox="0 0 512 512" xmlns="http://www.w3.org/2000/svg">
  <g>
    <path d="M256 64C150 64 64 150 64 256s86 192 192 192 192-86 192-192S362 64 256 64z" fill="none"/>
    <path d="M256 64c-53 0-101.3 21.4-136.2 56.2C84.6 155.3 64 203.6 64 256c0 52.4 20.6 100.7 55.8 135.8C154.7 426.6 203 448 256 448c53 0 101.3-21.4 136.2-56.2C427.4 356.7 448 308.4 448 256c0-52.4-20.6-100.7-55.8-135.8C357.3 85.4 309 64 256 64z" fill="#4A90E2"/>
    <path d="M256 64c53 0 101.3 21.4 136.2 56.2C427.4 155.3 448 203.6 448 256c0 52.4-20.6 100.7-55.8 135.8C357.3 426.6 309 448 256 448V64z" fill="#00B8D9"/>
  </g>
</svg> 