<?xml version="1.0" standalone="yes"?>
<svg xmlns="http://www.w3.org/2000/svg" width="512" height="512">
<rect width="512" height="512" fill="#1A2537"/>
<path style="fill:#8080ff; stroke:none;" d="M190 50L191 51L190 50z"/>
<path style="fill:#4d81c2; stroke:none;" d="M191 50.4283C179.275 52.1079 168.889 56.1447 160.004 64.1736C155.692 68.0699 152.818 74.0999 147.96 77.2577C144.5 79.5066 139.862 79.1053 136 80.3596C127.234 83.2066 119.853 88.8981 115.349 97C111.552 103.83 110.693 111.313 111.039 119C111.191 122.379 113.341 127.545 110.476 130.258C107.307 133.258 100.083 132.501 96 133.775C87.6461 136.38 80.6278 142.996 77.233 151C74.3951 157.691 73.7694 167.038 76.1049 174C77.3798 177.8 82.834 183.78 80.2886 187.772C77.8117 191.657 70.7581 192.519 67 194.966C58.2512 200.663 53.1525 210.635 53.0185 221C52.9264 228.129 55.1305 235.343 59.5293 240.996C61.6991 243.785 66.5284 246.561 67.3873 250.09C68.3527 254.055 63.0302 258.003 61.1335 261C57.8886 266.128 56.7767 272.011 57.0394 278C57.2775 283.431 59.0244 288.694 62.3904 293C64.5128 295.715 69.7093 299.105 69.6543 302.907C69.5947 307.027 61.1515 311.702 58.7894 315.001C52.3908 323.936 51.0627 336.933 55.5293 347C58.8366 354.454 65.305 360.703 73 363.451C77.1626 364.938 84.5523 364.143 87.2122 368.279C89.749 372.223 85.3094 380.497 85.1042 385C84.6499 394.965 88.9384 405.081 96.0154 411.957C102.698 418.449 112.606 422.453 122 421.907C126.45 421.648 134.764 417.329 138.682 419.927C142.177 422.244 141.401 430.251 142.211 434C143.899 441.805 147.917 448.564 154.004 453.787C164.722 462.983 180.494 464.007 193 458.088C197.168 456.115 202.387 449.262 207 449.345C210.832 449.414 214.194 454.335 217 456.468C222.17 460.398 229.494 462.74 236 461.674C247.632 459.768 251.726 449.596 251.985 439C252.613 413.367 252 387.641 252 362L252 191L252 135C252 125.105 252.768 114.852 251.83 105C250.926 95.4958 249.458 86.5176 244.877 78C234.749 59.1676 212.317 47.3744 191 50.4283z"/>
<path style="fill:#03a8dd; stroke:none;" d="M309 50.4283C302.856 51.3084 296.604 52.6114 291 55.3735C275.473 63.0261 263.959 77.7859 261.296 95C259.778 104.817 261 115.07 261 125L261 175L261 382L261 434C260.997 441.695 258.977 449.414 264.533 455.815C271.901 464.302 285.43 463.182 294 457.2C297.139 455.009 300.888 449.407 305 449.346C308.889 449.288 312.854 454.589 316 456.532C322.735 460.689 331.113 462.735 339 461.711C352.614 459.942 364.422 451.195 368.896 438C370.385 433.609 369.244 422.531 373.318 419.952C376.946 417.656 384.876 421.628 389 421.91C398.993 422.595 409.606 418.82 416.699 411.7C423.395 404.978 427.46 394.507 426.907 385C426.65 380.594 422.26 372.139 424.788 368.303C427.445 364.271 434.915 365.096 439 363.532C446.865 360.52 453.065 354.734 456.471 347C460.914 336.913 459.622 323.954 453.211 315.001C450.848 311.702 442.405 307.027 442.346 302.907C442.291 299.105 447.487 295.715 449.61 293C452.976 288.694 454.722 283.431 454.961 278C455.223 272.012 454.111 266.127 450.867 261C449.009 258.064 443.639 254.052 444.613 250.17C445.499 246.633 450.418 243.788 452.61 240.999C456.964 235.459 459.072 227.986 458.981 221C458.848 210.635 453.749 200.663 445 194.966C441.301 192.557 434.103 191.651 431.737 187.772C429.5 184.105 434.464 178.519 435.637 175C437.807 168.492 437.979 159.449 435.532 153C432.104 143.962 425.313 136.916 416 134.04C411.932 132.784 404.673 133.245 401.524 130.258C398.66 127.541 400.808 122.382 400.961 119C401.307 111.316 400.513 103.744 396.525 97C392.063 89.4566 385.396 83.5309 377 80.75C373.001 79.4256 367.813 79.8892 364.184 77.821C359.18 74.9684 356.257 68.0785 351.985 64.1736C340.859 54.0035 324.052 48.2719 309 50.4283z"/>
<path style="fill:#00ffff; stroke:none;" d="M320 50L321 51L320 50M287 57L288 58L287 57M163 61L164 62L163 61z"/>
<path style="fill:#8080ff; stroke:none;" d="M230 61L231 62L230 61z"/>
<path style="fill:#00ffff; stroke:none;" d="M281 61L282 62L281 61M362 77L363 78L362 77z"/>
<path style="fill:#8080ff; stroke:none;" d="M135 80L136 81L135 80z"/>
<path style="fill:#00ffff; stroke:none;" d="M246 81L247 82L246 81M265 81L266 82L265 81M384 84L385 85L384 84M124 86L125 87L124 86M249 89L250 90L249 89M392 91L393 92L392 91M250 93L251 94L250 93M395 95L396 96L395 95z"/>
<path style="fill:#000000; stroke:none;" d="M203 100.529C190.741 103.302 180.436 113.475 176.066 125C174.856 128.191 170.976 143.955 178.935 142.029C183.394 140.951 182.676 135.397 183.212 132C183.838 128.035 185.932 124.131 188.39 121C192.418 115.869 197.759 111.645 204 109.598C207.237 108.536 212.95 108.996 215.377 106.398C217.269 104.373 216.174 101.625 213.851 100.603C210.869 99.2921 206.083 99.831 203 100.529M298.232 100.742C294.991 102.281 295.403 106.067 298.232 107.821C301.079 109.586 304.872 108.747 308 109.637C315.992 111.912 323.061 118.702 326.722 126C328.477 129.498 329.21 143.71 334.871 142.11C341.03 140.369 337.369 127.791 335.767 124C331.217 113.232 322.091 104.961 311 101.36C307.323 100.165 301.933 98.9857 298.232 100.742z"/>
<path style="fill:#00ffff; stroke:none;" d="M311 101L312 102L311 101z"/>
<path style="fill:#8080ff; stroke:none;" d="M197 102L198 103L197 102z"/>
<path style="fill:#00ffff; stroke:none;" d="M251 102L252 103L251 102M111 107L112 108L111 107z"/>
<path style="fill:#8080ff; stroke:none;" d="M195 113L196 114L195 113z"/>
<path style="fill:#00ffff; stroke:none;" d="M316 113L317 114L316 113M187 121L188 122L187 121z"/>
<path style="fill:#8080ff; stroke:none;" d="M175 126L176 127L175 126z"/>
<path style="fill:#00ffff; stroke:none;" d="M112 128L113 129L112 128z"/>
<path style="fill:#8080ff; stroke:none;" d="M183 129L184 130L183 129z"/>
<path style="fill:#00ffff; stroke:none;" d="M111 130L112 131L111 130M414 133L415 134L414 133M417 134L418 135L417 134M88 137L89 138L88 137z"/>
<path style="fill:#000000; stroke:none;" d="M129 197L129 195C140.764 188.897 145.822 174.68 145.981 162C146.027 158.361 145.952 147.118 140.039 147.921C137.533 148.262 136.518 150.796 136.434 153.005C136.12 161.191 137.514 168.034 134.236 176C131.653 182.277 126.281 187.524 120 190.069C116.761 191.382 110.025 191.348 108.662 195.224C107.896 197.401 109.144 199.516 111.148 200.397C116.113 202.577 120.405 201.145 124.957 205.214C128.099 208.023 131.366 219.413 135.985 218.824C139.841 218.332 139.94 213.875 139.231 211C137.79 205.15 134.276 199.868 129 197M383 195C380.819 198.108 377.996 200.769 375.995 204C374.234 206.842 372.024 211.509 372.502 214.955C372.916 217.939 375.979 219.94 378.698 218.149C381.056 216.595 381.402 213.344 382.568 211C384.193 207.734 386.827 204.903 390.001 203.09C393.58 201.044 404.219 202.172 403.534 196.09C403.01 191.433 395.336 191.421 392 190.069C385.246 187.332 380.138 181.821 377.7 175C375.002 167.455 376.562 160.616 375.877 153.015C375.67 150.728 374.714 147.867 371.935 147.867C365.665 147.867 367 158.097 367 162C367.001 174.895 370.647 188.588 383 195z"/>
<path style="fill:#00ffff; stroke:none;" d="M137 148L138 149L137 148M143 148L144 149L143 148z"/>
<path style="fill:#8080ff; stroke:none;" d="M77 150L78 151L77 150M136 168L137 169L136 168z"/>
<path style="fill:#00ffff; stroke:none;" d="M143 176L144 177L143 176z"/>
<path style="fill:#000000; stroke:none;" d="M216.314 177.047C213.937 178.523 214.151 181.599 213.675 184C213.018 187.317 211.549 190.324 209.468 192.985C206.573 196.685 202.512 199.889 198.015 201.376C195.034 202.362 190.762 201.678 188.633 204.444C186.297 207.478 188.928 210.35 192.044 210.851C197.241 211.687 202.619 209.7 207 207.07C214.428 202.612 220.047 195.468 222.1 187C222.925 183.599 222.799 173.021 216.314 177.047M291.742 177.047C288.517 179.457 290.053 186.868 291.105 190C294.216 199.262 302.554 207.527 312 210.211C315.072 211.085 320.882 212.053 323.377 209.397C325.342 207.306 324.047 204.52 321.89 203.229C318.676 201.305 314.416 201.938 310.999 200.031C305.47 196.945 301.178 192.001 299.108 186C298.35 183.804 298.39 181.244 297.411 179.148C296.454 177.097 293.865 175.46 291.742 177.047z"/>
<path style="fill:#00ffff; stroke:none;" d="M290 177L291 178L290 177M133 178L134 179L133 178M380 181L381 182L380 181z"/>
<path style="fill:#8080ff; stroke:none;" d="M80 182L81 183L80 182z"/>
<path style="fill:#00ffff; stroke:none;" d="M140 183L141 184L140 183M119 190L120 191L119 190M392 190L393 191L392 190M69 193L70 194L69 193M303 194L304 195L303 194M218 195L219 196L218 195M404 196L405 197L404 196z"/>
<path style="fill:#8080ff; stroke:none;" d="M130 197L131 198L130 197z"/>
<path style="fill:#00ffff; stroke:none;" d="M119 201L120 202L119 201M300 203L301 204L300 203z"/>
<path style="fill:#8080ff; stroke:none;" d="M136 204L137 205L136 204z"/>
<path style="fill:#00ffff; stroke:none;" d="M210 204L211 205L210 204M187 208L188 209L187 208M53 215L54 216L53 215M58 239L59 240L58 239z"/>
<path style="fill:#8080ff; stroke:none;" d="M66 247L67 248L66 247z"/>
<path style="fill:#00ffff; stroke:none;" d="M444 248L445 249L444 248z"/>
<path style="fill:#000000; stroke:none;" d="M131 261.465C119.585 263.446 109.564 270.628 104.378 281C102.784 284.188 97.5903 298.133 105.065 298.133C110.474 298.133 111.666 285.72 114.224 282.004C117.609 277.086 122.379 273.551 128 271.549C130.947 270.499 134.99 270.656 137.566 268.825C143.959 264.28 135.196 260.737 131 261.465M375.229 261.746C372.38 263.046 372.028 266.353 374.333 268.401C377.209 270.957 382.51 270.799 386 272.349C395.349 276.501 399.489 283.637 402.39 292.985C403.223 295.669 405.171 299.58 408.687 297.712C413.592 295.106 409.843 285.536 408.204 282C403.735 272.352 396.071 266.049 386 262.749C382.85 261.717 378.453 260.275 375.229 261.746z"/>
<path style="fill:#00ffff; stroke:none;" d="M392 265L393 266L392 265M139 267L140 268L139 267M109 273L110 274L109 273z"/>
<path style="fill:#8080ff; stroke:none;" d="M118 276L119 277L118 276z"/>
<path style="fill:#00ffff; stroke:none;" d="M106 277L107 278L106 277z"/>
<path style="fill:#000000; stroke:none;" d="M194.608 284.032C192.661 285.562 193.553 288.2 194.515 290.001C196.723 294.135 199.861 297.378 201.211 302C203.414 309.535 202.822 318.019 199.175 325C197.597 328.02 194.562 330.688 193.658 333.995C192.688 337.547 195.564 340.243 198.99 338.762C202.856 337.091 205.393 332.582 207.19 329C212.138 319.136 212.594 306.288 208.535 296C206.976 292.046 200.671 279.269 194.608 284.032M313 284.047C299.759 290.258 298.882 313.309 303.09 325C304.629 329.275 310.395 342.006 316.756 338.863C322.863 335.847 312.9 325.781 311.549 322C308.89 314.565 309.156 305.017 312.825 298C314.542 294.715 318.283 291.691 319.03 288.019C319.797 284.25 316.023 282.629 313 284.047z"/>
<path style="fill:#00ffff; stroke:none;" d="M110 289L111 290L110 289M402 293L403 294L402 293M101 296L102 297L101 296M302 299L303 300L302 299z"/>
<path style="fill:#8080ff; stroke:none;" d="M201 302L202 303L201 302M69 305L70 306L69 305z"/>
<path style="fill:#00ffff; stroke:none;" d="M202 313L203 314L202 313z"/>
<path style="fill:#8080ff; stroke:none;" d="M209 323L210 324L209 323z"/>
<path style="fill:#00ffff; stroke:none;" d="M204 333L205 334L204 333z"/>
<path style="fill:#8080ff; stroke:none;" d="M198 339L199 340L198 339z"/>
<path style="fill:#00ffff; stroke:none;" d="M454 350L455 351L454 350z"/>
<path style="fill:#8080ff; stroke:none;" d="M60 354L61 355L60 354z"/>
<path style="fill:#000000; stroke:none;" d="M146.13 364.971C139.276 366.67 144.899 381.156 146.453 385C151.803 398.233 162.668 407.338 177 408.948C180.371 409.327 184.605 410.154 187.768 408.482C190.279 407.155 191.081 403.841 188.551 402.028C185.585 399.903 179.555 400.767 176 399.985C166.925 397.987 159.956 392.286 155.81 384C153.261 378.906 153.359 373.15 151.11 368.11C150.236 366.149 148.469 364.391 146.13 364.971M364.213 364.971C361.026 365.779 360.74 370.41 360.116 373C358.533 379.566 356.406 385.871 351.815 390.985C347.519 395.772 342.315 398.865 336 400.066C332.565 400.719 326.39 399.957 323.604 402.179C321.055 404.212 322.448 407.815 325.148 408.757C328.866 410.054 334.198 409.327 338 408.675C351.182 406.415 361.836 396.376 366.301 384C367.851 379.703 370.026 373.678 369.28 369.044C368.896 366.657 366.878 364.295 364.213 364.971z"/>
<path style="fill:#00ffff; stroke:none;" d="M423 368L424 369L423 368M360 371L361 372L360 371z"/>
<path style="fill:#8080ff; stroke:none;" d="M85 390L86 391L85 390M152 395L153 396L152 395z"/>
<path style="fill:#00ffff; stroke:none;" d="M344 397L345 398L344 397M339 399L340 400L339 399M158 401L159 402L158 401M422 403L423 404L422 403M173 408L174 409L173 408M95 411L96 412L95 411z"/>
<path style="fill:#8080ff; stroke:none;" d="M103 417L104 418L103 417z"/>
<path style="fill:#00ffff; stroke:none;" d="M105 418L106 419L105 418z"/>
<path style="fill:#8080ff; stroke:none;" d="M142 435L143 436L142 435M147 446L148 447L147 446z"/>
<path style="fill:#00ffff; stroke:none;" d="M306 448L307 449L306 448M198 454L199 455L198 454M352 457L353 458L352 457M350 458L351 459L350 458M240 460L241 461L240 460z"/>
</svg>
